<svg xmlns="http://www.w3.org/2000/svg" width="805" height="600"><rect width="805" height="600" x="0" y="0" fill="#FFFFFF" id="backgorund"/><g id="viz"><g transform="translate(0,0)"><g transform="translate(50,20)"><g class="bars"><rect id="8192 - Wall Time" x="4.867556844973943" y="136.18344000000002" height="23.81655999999998" width="14.630401746996112" fill="#1f77b4"/><rect id="8192 - Wall Time" x="25.308425500128312" y="121.36760000000001" height="38.63239999999999" width="14.630401746996112" fill="#1f77b4"/><rect id="8192 - Wall Time" x="45.749294155282676" y="114.02936" height="45.97064" width="14.630401746996112" fill="#1f77b4"/><rect id="8192 - Wall Time" x="66.19016281043704" y="108.04096000000001" height="51.95903999999999" width="14.630401746996112" fill="#1f77b4"/><rect id="8192 - Wall Time" x="86.63103146559142" y="68.51599999999999" height="91.48400000000001" width="14.630401746996112" fill="#1f77b4"/><rect id="8192 - Wall Time" x="107.07190012074578" y="42.593680000000006" height="117.40632" width="14.630401746996112" fill="#1f77b4"/><rect id="8192 - Wall Time" x="127.51276877590016" y="24.749920000000003" height="135.25008" width="14.630401746996112" fill="#1f77b4"/><rect id="8192 - Wall Time" x="147.95363743105455" y="15.369200000000003" height="144.6308" width="14.630401746996112" fill="#1f77b4"/><rect id="8192 - Wall Time" x="168.3945060862089" y="2.8052800000000033" height="157.19472" width="14.630401746996112" fill="#1f77b4"/><rect id="8192 - Wall Time" x="188.83537474136327" y="11.8792" height="148.1208" width="14.630401746996112" fill="#1f77b4"/></g><g id="xAxis" transform="translate(0,160)" fill="none" font-size="10" font-family="sans-serif" text-anchor="middle"><path class="domain" stroke="currentColor" d="M0.5,0.5H208.83333333333331"/><g class="tick" opacity="1" transform="translate(12.182757718471999,0)"><line stroke="currentColor" y2="6"/><text fill="currentColor" y="9" dy="0.71em">1</text></g><g class="tick" opacity="1" transform="translate(32.623626373626365,0)"><line stroke="currentColor" y2="6"/><text fill="currentColor" y="9" dy="0.71em">2</text></g><g class="tick" opacity="1" transform="translate(53.06449502878073,0)"><line stroke="currentColor" y2="6"/><text fill="currentColor" y="9" dy="0.71em">3</text></g><g class="tick" opacity="1" transform="translate(73.5053636839351,0)"><line stroke="currentColor" y2="6"/><text fill="currentColor" y="9" dy="0.71em">4</text></g><g class="tick" opacity="1" transform="translate(93.94623233908948,0)"><line stroke="currentColor" y2="6"/><text fill="currentColor" y="9" dy="0.71em">5</text></g><g class="tick" opacity="1" transform="translate(114.38710099424384,0)"><line stroke="currentColor" y2="6"/><text fill="currentColor" y="9" dy="0.71em">6</text></g><g class="tick" opacity="1" transform="translate(134.8279696493982,0)"><line stroke="currentColor" y2="6"/><text fill="currentColor" y="9" dy="0.71em">7</text></g><g class="tick" opacity="1" transform="translate(155.2688383045526,0)"><line stroke="currentColor" y2="6"/><text fill="currentColor" y="9" dy="0.71em">8</text></g><g class="tick" opacity="1" transform="translate(175.70970695970695,0)"><line stroke="currentColor" y2="6"/><text fill="currentColor" y="9" dy="0.71em">9</text></g><g class="tick" opacity="1" transform="translate(196.1505756148613,0)"><line stroke="currentColor" y2="6"/><text fill="currentColor" y="9" dy="0.71em">10</text></g></g><g id="yAxis" fill="none" font-size="10" font-family="sans-serif" text-anchor="end"><path class="domain" stroke="currentColor" d="M0.5,160.5V0.5"/><g class="tick" opacity="1" transform="translate(0,160.5)"><line stroke="currentColor" x2="-6"/><text fill="currentColor" x="-9" dy="0.32em">0.0</text></g><g class="tick" opacity="1" transform="translate(0,144.5)"><line stroke="currentColor" x2="-6"/><text fill="currentColor" x="-9" dy="0.32em">0.2</text></g><g class="tick" opacity="1" transform="translate(0,128.5)"><line stroke="currentColor" x2="-6"/><text fill="currentColor" x="-9" dy="0.32em">0.4</text></g><g class="tick" opacity="1" transform="translate(0,112.5)"><line stroke="currentColor" x2="-6"/><text fill="currentColor" x="-9" dy="0.32em">0.6</text></g><g class="tick" opacity="1" transform="translate(0,96.5)"><line stroke="currentColor" x2="-6"/><text fill="currentColor" x="-9" dy="0.32em">0.8</text></g><g class="tick" opacity="1" transform="translate(0,80.5)"><line stroke="currentColor" x2="-6"/><text fill="currentColor" x="-9" dy="0.32em">1.0</text></g><g class="tick" opacity="1" transform="translate(0,64.5)"><line stroke="currentColor" x2="-6"/><text fill="currentColor" x="-9" dy="0.32em">1.2</text></g><g class="tick" opacity="1" transform="translate(0,48.50000000000001)"><line stroke="currentColor" x2="-6"/><text fill="currentColor" x="-9" dy="0.32em">1.4</text></g><g class="tick" opacity="1" transform="translate(0,32.49999999999999)"><line stroke="currentColor" x2="-6"/><text fill="currentColor" x="-9" dy="0.32em">1.6</text></g><g class="tick" opacity="1" transform="translate(0,16.499999999999996)"><line stroke="currentColor" x2="-6"/><text fill="currentColor" x="-9" dy="0.32em">1.8</text></g><g class="tick" opacity="1" transform="translate(0,0.5)"><line stroke="currentColor" x2="-6"/><text fill="currentColor" x="-9" dy="0.32em">2.0</text></g></g><text y="156" x="208.33333333333331" text-anchor="end" style="font-family: Arial, sans-serif; font-size: 12px; fill: rgb(123, 123, 123); font-weight: bold;">Sets</text><text y="0" x="4" dominant-baseline="hanging" text-anchor="start" style="font-family: Arial, sans-serif; font-size: 12px; fill: rgb(123, 123, 123); font-weight: bold;">Value</text></g><text x="4" y="4" style="font-family: Arial, sans-serif; font-size: 12px; fill: black; font-weight: bold; dominant-baseline: hanging;">8192</text></g><g transform="translate(268.3333333333333,0)"><g transform="translate(50,20)"><g class="bars"><rect id="16384 - Wall Time" x="4.867556844973943" y="140.46752" height="19.532479999999993" width="14.630401746996112" fill="#1f77b4"/><rect id="16384 - Wall Time" x="25.308425500128312" y="134.22536000000002" height="25.774639999999977" width="14.630401746996112" fill="#1f77b4"/><rect id="16384 - Wall Time" x="45.749294155282676" y="129.22088" height="30.779120000000006" width="14.630401746996112" fill="#1f77b4"/><rect id="16384 - Wall Time" x="66.19016281043704" y="124.726" height="35.274" width="14.630401746996112" fill="#1f77b4"/><rect id="16384 - Wall Time" x="86.63103146559142" y="107.61344000000001" height="52.38655999999999" width="14.630401746996112" fill="#1f77b4"/><rect id="16384 - Wall Time" x="107.07190012074578" y="93.91999999999999" height="66.08000000000001" width="14.630401746996112" fill="#1f77b4"/><rect id="16384 - Wall Time" x="127.51276877590016" y="86.10976000000001" height="73.89023999999999" width="14.630401746996112" fill="#1f77b4"/><rect id="16384 - Wall Time" x="147.95363743105455" y="77.9888" height="82.0112" width="14.630401746996112" fill="#1f77b4"/><rect id="16384 - Wall Time" x="168.3945060862089" y="77.71168" height="82.28832" width="14.630401746996112" fill="#1f77b4"/><rect id="16384 - Wall Time" x="188.83537474136327" y="75.47576" height="84.52424" width="14.630401746996112" fill="#1f77b4"/></g><g id="xAxis" transform="translate(0,160)" fill="none" font-size="10" font-family="sans-serif" text-anchor="middle"><path class="domain" stroke="currentColor" d="M0.5,0.5H208.83333333333331"/><g class="tick" opacity="1" transform="translate(12.182757718471999,0)"><line stroke="currentColor" y2="6"/><text fill="currentColor" y="9" dy="0.71em">1</text></g><g class="tick" opacity="1" transform="translate(32.623626373626365,0)"><line stroke="currentColor" y2="6"/><text fill="currentColor" y="9" dy="0.71em">2</text></g><g class="tick" opacity="1" transform="translate(53.06449502878073,0)"><line stroke="currentColor" y2="6"/><text fill="currentColor" y="9" dy="0.71em">3</text></g><g class="tick" opacity="1" transform="translate(73.5053636839351,0)"><line stroke="currentColor" y2="6"/><text fill="currentColor" y="9" dy="0.71em">4</text></g><g class="tick" opacity="1" transform="translate(93.94623233908948,0)"><line stroke="currentColor" y2="6"/><text fill="currentColor" y="9" dy="0.71em">5</text></g><g class="tick" opacity="1" transform="translate(114.38710099424384,0)"><line stroke="currentColor" y2="6"/><text fill="currentColor" y="9" dy="0.71em">6</text></g><g class="tick" opacity="1" transform="translate(134.8279696493982,0)"><line stroke="currentColor" y2="6"/><text fill="currentColor" y="9" dy="0.71em">7</text></g><g class="tick" opacity="1" transform="translate(155.2688383045526,0)"><line stroke="currentColor" y2="6"/><text fill="currentColor" y="9" dy="0.71em">8</text></g><g class="tick" opacity="1" transform="translate(175.70970695970695,0)"><line stroke="currentColor" y2="6"/><text fill="currentColor" y="9" dy="0.71em">9</text></g><g class="tick" opacity="1" transform="translate(196.1505756148613,0)"><line stroke="currentColor" y2="6"/><text fill="currentColor" y="9" dy="0.71em">10</text></g></g><g id="yAxis" fill="none" font-size="10" font-family="sans-serif" text-anchor="end"><path class="domain" stroke="currentColor" d="M0.5,160.5V0.5"/><g class="tick" opacity="1" transform="translate(0,160.5)"><line stroke="currentColor" x2="-6"/><text fill="currentColor" x="-9" dy="0.32em">0.0</text></g><g class="tick" opacity="1" transform="translate(0,144.5)"><line stroke="currentColor" x2="-6"/><text fill="currentColor" x="-9" dy="0.32em">0.2</text></g><g class="tick" opacity="1" transform="translate(0,128.5)"><line stroke="currentColor" x2="-6"/><text fill="currentColor" x="-9" dy="0.32em">0.4</text></g><g class="tick" opacity="1" transform="translate(0,112.5)"><line stroke="currentColor" x2="-6"/><text fill="currentColor" x="-9" dy="0.32em">0.6</text></g><g class="tick" opacity="1" transform="translate(0,96.5)"><line stroke="currentColor" x2="-6"/><text fill="currentColor" x="-9" dy="0.32em">0.8</text></g><g class="tick" opacity="1" transform="translate(0,80.5)"><line stroke="currentColor" x2="-6"/><text fill="currentColor" x="-9" dy="0.32em">1.0</text></g><g class="tick" opacity="1" transform="translate(0,64.5)"><line stroke="currentColor" x2="-6"/><text fill="currentColor" x="-9" dy="0.32em">1.2</text></g><g class="tick" opacity="1" transform="translate(0,48.50000000000001)"><line stroke="currentColor" x2="-6"/><text fill="currentColor" x="-9" dy="0.32em">1.4</text></g><g class="tick" opacity="1" transform="translate(0,32.49999999999999)"><line stroke="currentColor" x2="-6"/><text fill="currentColor" x="-9" dy="0.32em">1.6</text></g><g class="tick" opacity="1" transform="translate(0,16.499999999999996)"><line stroke="currentColor" x2="-6"/><text fill="currentColor" x="-9" dy="0.32em">1.8</text></g><g class="tick" opacity="1" transform="translate(0,0.5)"><line stroke="currentColor" x2="-6"/><text fill="currentColor" x="-9" dy="0.32em">2.0</text></g></g><text y="156" x="208.33333333333331" text-anchor="end" display="none" style="font-family: Arial, sans-serif; font-size: 12px; fill: rgb(123, 123, 123); font-weight: bold;">Sets</text><text y="0" x="4" dominant-baseline="hanging" text-anchor="start" display="none" style="font-family: Arial, sans-serif; font-size: 12px; fill: rgb(123, 123, 123); font-weight: bold;">Value</text></g><text x="4" y="4" style="font-family: Arial, sans-serif; font-size: 12px; fill: black; font-weight: bold; dominant-baseline: hanging;">16384</text></g><g transform="translate(536.6666666666666,0)"><g transform="translate(50,20)"><g class="bars"><rect id="32768 - Wall Time" x="4.867556844973943" y="141.43952000000002" height="18.560479999999984" width="14.630401746996112" fill="#1f77b4"/><rect id="32768 - Wall Time" x="25.308425500128312" y="138.03808" height="21.961919999999992" width="14.630401746996112" fill="#1f77b4"/><rect id="32768 - Wall Time" x="45.749294155282676" y="132.88312" height="27.11688000000001" width="14.630401746996112" fill="#1f77b4"/><rect id="32768 - Wall Time" x="66.19016281043704" y="128.23152" height="31.76848000000001" width="14.630401746996112" fill="#1f77b4"/><rect id="32768 - Wall Time" x="86.63103146559142" y="119.03431999999998" height="40.96568000000002" width="14.630401746996112" fill="#1f77b4"/><rect id="32768 - Wall Time" x="107.07190012074578" y="112.40128" height="47.59872" width="14.630401746996112" fill="#1f77b4"/><rect id="32768 - Wall Time" x="127.51276877590016" y="110.94239999999999" height="49.05760000000001" width="14.630401746996112" fill="#1f77b4"/><rect id="32768 - Wall Time" x="147.95363743105455" y="103.60736" height="56.39264" width="14.630401746996112" fill="#1f77b4"/><rect id="32768 - Wall Time" x="168.3945060862089" y="104.06072" height="55.93928" width="14.630401746996112" fill="#1f77b4"/><rect id="32768 - Wall Time" x="188.83537474136327" y="103.04223999999999" height="56.95776000000001" width="14.630401746996112" fill="#1f77b4"/></g><g id="xAxis" transform="translate(0,160)" fill="none" font-size="10" font-family="sans-serif" text-anchor="middle"><path class="domain" stroke="currentColor" d="M0.5,0.5H208.83333333333331"/><g class="tick" opacity="1" transform="translate(12.182757718471999,0)"><line stroke="currentColor" y2="6"/><text fill="currentColor" y="9" dy="0.71em">1</text></g><g class="tick" opacity="1" transform="translate(32.623626373626365,0)"><line stroke="currentColor" y2="6"/><text fill="currentColor" y="9" dy="0.71em">2</text></g><g class="tick" opacity="1" transform="translate(53.06449502878073,0)"><line stroke="currentColor" y2="6"/><text fill="currentColor" y="9" dy="0.71em">3</text></g><g class="tick" opacity="1" transform="translate(73.5053636839351,0)"><line stroke="currentColor" y2="6"/><text fill="currentColor" y="9" dy="0.71em">4</text></g><g class="tick" opacity="1" transform="translate(93.94623233908948,0)"><line stroke="currentColor" y2="6"/><text fill="currentColor" y="9" dy="0.71em">5</text></g><g class="tick" opacity="1" transform="translate(114.38710099424384,0)"><line stroke="currentColor" y2="6"/><text fill="currentColor" y="9" dy="0.71em">6</text></g><g class="tick" opacity="1" transform="translate(134.8279696493982,0)"><line stroke="currentColor" y2="6"/><text fill="currentColor" y="9" dy="0.71em">7</text></g><g class="tick" opacity="1" transform="translate(155.2688383045526,0)"><line stroke="currentColor" y2="6"/><text fill="currentColor" y="9" dy="0.71em">8</text></g><g class="tick" opacity="1" transform="translate(175.70970695970695,0)"><line stroke="currentColor" y2="6"/><text fill="currentColor" y="9" dy="0.71em">9</text></g><g class="tick" opacity="1" transform="translate(196.1505756148613,0)"><line stroke="currentColor" y2="6"/><text fill="currentColor" y="9" dy="0.71em">10</text></g></g><g id="yAxis" fill="none" font-size="10" font-family="sans-serif" text-anchor="end"><path class="domain" stroke="currentColor" d="M0.5,160.5V0.5"/><g class="tick" opacity="1" transform="translate(0,160.5)"><line stroke="currentColor" x2="-6"/><text fill="currentColor" x="-9" dy="0.32em">0.0</text></g><g class="tick" opacity="1" transform="translate(0,144.5)"><line stroke="currentColor" x2="-6"/><text fill="currentColor" x="-9" dy="0.32em">0.2</text></g><g class="tick" opacity="1" transform="translate(0,128.5)"><line stroke="currentColor" x2="-6"/><text fill="currentColor" x="-9" dy="0.32em">0.4</text></g><g class="tick" opacity="1" transform="translate(0,112.5)"><line stroke="currentColor" x2="-6"/><text fill="currentColor" x="-9" dy="0.32em">0.6</text></g><g class="tick" opacity="1" transform="translate(0,96.5)"><line stroke="currentColor" x2="-6"/><text fill="currentColor" x="-9" dy="0.32em">0.8</text></g><g class="tick" opacity="1" transform="translate(0,80.5)"><line stroke="currentColor" x2="-6"/><text fill="currentColor" x="-9" dy="0.32em">1.0</text></g><g class="tick" opacity="1" transform="translate(0,64.5)"><line stroke="currentColor" x2="-6"/><text fill="currentColor" x="-9" dy="0.32em">1.2</text></g><g class="tick" opacity="1" transform="translate(0,48.50000000000001)"><line stroke="currentColor" x2="-6"/><text fill="currentColor" x="-9" dy="0.32em">1.4</text></g><g class="tick" opacity="1" transform="translate(0,32.49999999999999)"><line stroke="currentColor" x2="-6"/><text fill="currentColor" x="-9" dy="0.32em">1.6</text></g><g class="tick" opacity="1" transform="translate(0,16.499999999999996)"><line stroke="currentColor" x2="-6"/><text fill="currentColor" x="-9" dy="0.32em">1.8</text></g><g class="tick" opacity="1" transform="translate(0,0.5)"><line stroke="currentColor" x2="-6"/><text fill="currentColor" x="-9" dy="0.32em">2.0</text></g></g><text y="156" x="208.33333333333331" text-anchor="end" display="none" style="font-family: Arial, sans-serif; font-size: 12px; fill: rgb(123, 123, 123); font-weight: bold;">Sets</text><text y="0" x="4" dominant-baseline="hanging" text-anchor="start" display="none" style="font-family: Arial, sans-serif; font-size: 12px; fill: rgb(123, 123, 123); font-weight: bold;">Value</text></g><text x="4" y="4" style="font-family: Arial, sans-serif; font-size: 12px; fill: black; font-weight: bold; dominant-baseline: hanging;">32768</text></g><g transform="translate(0,200)"><g transform="translate(50,20)"><g class="bars"><rect id="65536 - Wall Time" x="4.867556844973943" y="143.13344" height="16.866559999999993" width="14.630401746996112" fill="#1f77b4"/><rect id="65536 - Wall Time" x="25.308425500128312" y="139.416" height="20.584000000000003" width="14.630401746996112" fill="#1f77b4"/><rect id="65536 - Wall Time" x="45.749294155282676" y="134.58232" height="25.41767999999999" width="14.630401746996112" fill="#1f77b4"/><rect id="65536 - Wall Time" x="66.19016281043704" y="130.27424" height="29.725760000000008" width="14.630401746996112" fill="#1f77b4"/><rect id="65536 - Wall Time" x="86.63103146559142" y="124.606" height="35.394000000000005" width="14.630401746996112" fill="#1f77b4"/><rect id="65536 - Wall Time" x="107.07190012074578" y="118.08568000000001" height="41.91431999999999" width="14.630401746996112" fill="#1f77b4"/><rect id="65536 - Wall Time" x="127.51276877590016" y="115.51416" height="44.485839999999996" width="14.630401746996112" fill="#1f77b4"/><rect id="65536 - Wall Time" x="147.95363743105455" y="113.81304" height="46.18696" width="14.630401746996112" fill="#1f77b4"/><rect id="65536 - Wall Time" x="168.3945060862089" y="112.318" height="47.682" width="14.630401746996112" fill="#1f77b4"/><rect id="65536 - Wall Time" x="188.83537474136327" y="113.06888000000001" height="46.93111999999999" width="14.630401746996112" fill="#1f77b4"/></g><g id="xAxis" transform="translate(0,160)" fill="none" font-size="10" font-family="sans-serif" text-anchor="middle"><path class="domain" stroke="currentColor" d="M0.5,0.5H208.83333333333331"/><g class="tick" opacity="1" transform="translate(12.182757718471999,0)"><line stroke="currentColor" y2="6"/><text fill="currentColor" y="9" dy="0.71em">1</text></g><g class="tick" opacity="1" transform="translate(32.623626373626365,0)"><line stroke="currentColor" y2="6"/><text fill="currentColor" y="9" dy="0.71em">2</text></g><g class="tick" opacity="1" transform="translate(53.06449502878073,0)"><line stroke="currentColor" y2="6"/><text fill="currentColor" y="9" dy="0.71em">3</text></g><g class="tick" opacity="1" transform="translate(73.5053636839351,0)"><line stroke="currentColor" y2="6"/><text fill="currentColor" y="9" dy="0.71em">4</text></g><g class="tick" opacity="1" transform="translate(93.94623233908948,0)"><line stroke="currentColor" y2="6"/><text fill="currentColor" y="9" dy="0.71em">5</text></g><g class="tick" opacity="1" transform="translate(114.38710099424384,0)"><line stroke="currentColor" y2="6"/><text fill="currentColor" y="9" dy="0.71em">6</text></g><g class="tick" opacity="1" transform="translate(134.8279696493982,0)"><line stroke="currentColor" y2="6"/><text fill="currentColor" y="9" dy="0.71em">7</text></g><g class="tick" opacity="1" transform="translate(155.2688383045526,0)"><line stroke="currentColor" y2="6"/><text fill="currentColor" y="9" dy="0.71em">8</text></g><g class="tick" opacity="1" transform="translate(175.70970695970695,0)"><line stroke="currentColor" y2="6"/><text fill="currentColor" y="9" dy="0.71em">9</text></g><g class="tick" opacity="1" transform="translate(196.1505756148613,0)"><line stroke="currentColor" y2="6"/><text fill="currentColor" y="9" dy="0.71em">10</text></g></g><g id="yAxis" fill="none" font-size="10" font-family="sans-serif" text-anchor="end"><path class="domain" stroke="currentColor" d="M0.5,160.5V0.5"/><g class="tick" opacity="1" transform="translate(0,160.5)"><line stroke="currentColor" x2="-6"/><text fill="currentColor" x="-9" dy="0.32em">0.0</text></g><g class="tick" opacity="1" transform="translate(0,144.5)"><line stroke="currentColor" x2="-6"/><text fill="currentColor" x="-9" dy="0.32em">0.2</text></g><g class="tick" opacity="1" transform="translate(0,128.5)"><line stroke="currentColor" x2="-6"/><text fill="currentColor" x="-9" dy="0.32em">0.4</text></g><g class="tick" opacity="1" transform="translate(0,112.5)"><line stroke="currentColor" x2="-6"/><text fill="currentColor" x="-9" dy="0.32em">0.6</text></g><g class="tick" opacity="1" transform="translate(0,96.5)"><line stroke="currentColor" x2="-6"/><text fill="currentColor" x="-9" dy="0.32em">0.8</text></g><g class="tick" opacity="1" transform="translate(0,80.5)"><line stroke="currentColor" x2="-6"/><text fill="currentColor" x="-9" dy="0.32em">1.0</text></g><g class="tick" opacity="1" transform="translate(0,64.5)"><line stroke="currentColor" x2="-6"/><text fill="currentColor" x="-9" dy="0.32em">1.2</text></g><g class="tick" opacity="1" transform="translate(0,48.50000000000001)"><line stroke="currentColor" x2="-6"/><text fill="currentColor" x="-9" dy="0.32em">1.4</text></g><g class="tick" opacity="1" transform="translate(0,32.49999999999999)"><line stroke="currentColor" x2="-6"/><text fill="currentColor" x="-9" dy="0.32em">1.6</text></g><g class="tick" opacity="1" transform="translate(0,16.499999999999996)"><line stroke="currentColor" x2="-6"/><text fill="currentColor" x="-9" dy="0.32em">1.8</text></g><g class="tick" opacity="1" transform="translate(0,0.5)"><line stroke="currentColor" x2="-6"/><text fill="currentColor" x="-9" dy="0.32em">2.0</text></g></g><text y="156" x="208.33333333333331" text-anchor="end" display="none" style="font-family: Arial, sans-serif; font-size: 12px; fill: rgb(123, 123, 123); font-weight: bold;">Sets</text><text y="0" x="4" dominant-baseline="hanging" text-anchor="start" display="none" style="font-family: Arial, sans-serif; font-size: 12px; fill: rgb(123, 123, 123); font-weight: bold;">Value</text></g><text x="4" y="4" style="font-family: Arial, sans-serif; font-size: 12px; fill: black; font-weight: bold; dominant-baseline: hanging;">65536</text></g><g transform="translate(268.3333333333333,200)"><g transform="translate(50,20)"><g class="bars"><rect id="524288 - Wall Time" x="4.867556844973943" y="143.28224" height="16.71776" width="14.630401746996112" fill="#1f77b4"/><rect id="524288 - Wall Time" x="25.308425500128312" y="139.81743999999998" height="20.182560000000024" width="14.630401746996112" fill="#1f77b4"/><rect id="524288 - Wall Time" x="45.749294155282676" y="135.38624000000002" height="24.613759999999985" width="14.630401746996112" fill="#1f77b4"/><rect id="524288 - Wall Time" x="66.19016281043704" y="132.1772" height="27.8228" width="14.630401746996112" fill="#1f77b4"/><rect id="524288 - Wall Time" x="86.63103146559142" y="128.94096" height="31.05904000000001" width="14.630401746996112" fill="#1f77b4"/><rect id="524288 - Wall Time" x="107.07190012074578" y="123.98536" height="36.01464" width="14.630401746996112" fill="#1f77b4"/><rect id="524288 - Wall Time" x="127.51276877590016" y="116.81392" height="43.186080000000004" width="14.630401746996112" fill="#1f77b4"/><rect id="524288 - Wall Time" x="147.95363743105455" y="114.44568000000001" height="45.55431999999999" width="14.630401746996112" fill="#1f77b4"/><rect id="524288 - Wall Time" x="168.3945060862089" y="115.50095999999999" height="44.49904000000001" width="14.630401746996112" fill="#1f77b4"/><rect id="524288 - Wall Time" x="188.83537474136327" y="113.72271999999998" height="46.27728000000002" width="14.630401746996112" fill="#1f77b4"/></g><g id="xAxis" transform="translate(0,160)" fill="none" font-size="10" font-family="sans-serif" text-anchor="middle"><path class="domain" stroke="currentColor" d="M0.5,0.5H208.83333333333331"/><g class="tick" opacity="1" transform="translate(12.182757718471999,0)"><line stroke="currentColor" y2="6"/><text fill="currentColor" y="9" dy="0.71em">1</text></g><g class="tick" opacity="1" transform="translate(32.623626373626365,0)"><line stroke="currentColor" y2="6"/><text fill="currentColor" y="9" dy="0.71em">2</text></g><g class="tick" opacity="1" transform="translate(53.06449502878073,0)"><line stroke="currentColor" y2="6"/><text fill="currentColor" y="9" dy="0.71em">3</text></g><g class="tick" opacity="1" transform="translate(73.5053636839351,0)"><line stroke="currentColor" y2="6"/><text fill="currentColor" y="9" dy="0.71em">4</text></g><g class="tick" opacity="1" transform="translate(93.94623233908948,0)"><line stroke="currentColor" y2="6"/><text fill="currentColor" y="9" dy="0.71em">5</text></g><g class="tick" opacity="1" transform="translate(114.38710099424384,0)"><line stroke="currentColor" y2="6"/><text fill="currentColor" y="9" dy="0.71em">6</text></g><g class="tick" opacity="1" transform="translate(134.8279696493982,0)"><line stroke="currentColor" y2="6"/><text fill="currentColor" y="9" dy="0.71em">7</text></g><g class="tick" opacity="1" transform="translate(155.2688383045526,0)"><line stroke="currentColor" y2="6"/><text fill="currentColor" y="9" dy="0.71em">8</text></g><g class="tick" opacity="1" transform="translate(175.70970695970695,0)"><line stroke="currentColor" y2="6"/><text fill="currentColor" y="9" dy="0.71em">9</text></g><g class="tick" opacity="1" transform="translate(196.1505756148613,0)"><line stroke="currentColor" y2="6"/><text fill="currentColor" y="9" dy="0.71em">10</text></g></g><g id="yAxis" fill="none" font-size="10" font-family="sans-serif" text-anchor="end"><path class="domain" stroke="currentColor" d="M0.5,160.5V0.5"/><g class="tick" opacity="1" transform="translate(0,160.5)"><line stroke="currentColor" x2="-6"/><text fill="currentColor" x="-9" dy="0.32em">0.0</text></g><g class="tick" opacity="1" transform="translate(0,144.5)"><line stroke="currentColor" x2="-6"/><text fill="currentColor" x="-9" dy="0.32em">0.2</text></g><g class="tick" opacity="1" transform="translate(0,128.5)"><line stroke="currentColor" x2="-6"/><text fill="currentColor" x="-9" dy="0.32em">0.4</text></g><g class="tick" opacity="1" transform="translate(0,112.5)"><line stroke="currentColor" x2="-6"/><text fill="currentColor" x="-9" dy="0.32em">0.6</text></g><g class="tick" opacity="1" transform="translate(0,96.5)"><line stroke="currentColor" x2="-6"/><text fill="currentColor" x="-9" dy="0.32em">0.8</text></g><g class="tick" opacity="1" transform="translate(0,80.5)"><line stroke="currentColor" x2="-6"/><text fill="currentColor" x="-9" dy="0.32em">1.0</text></g><g class="tick" opacity="1" transform="translate(0,64.5)"><line stroke="currentColor" x2="-6"/><text fill="currentColor" x="-9" dy="0.32em">1.2</text></g><g class="tick" opacity="1" transform="translate(0,48.50000000000001)"><line stroke="currentColor" x2="-6"/><text fill="currentColor" x="-9" dy="0.32em">1.4</text></g><g class="tick" opacity="1" transform="translate(0,32.49999999999999)"><line stroke="currentColor" x2="-6"/><text fill="currentColor" x="-9" dy="0.32em">1.6</text></g><g class="tick" opacity="1" transform="translate(0,16.499999999999996)"><line stroke="currentColor" x2="-6"/><text fill="currentColor" x="-9" dy="0.32em">1.8</text></g><g class="tick" opacity="1" transform="translate(0,0.5)"><line stroke="currentColor" x2="-6"/><text fill="currentColor" x="-9" dy="0.32em">2.0</text></g></g><text y="156" x="208.33333333333331" text-anchor="end" display="none" style="font-family: Arial, sans-serif; font-size: 12px; fill: rgb(123, 123, 123); font-weight: bold;">Sets</text><text y="0" x="4" dominant-baseline="hanging" text-anchor="start" display="none" style="font-family: Arial, sans-serif; font-size: 12px; fill: rgb(123, 123, 123); font-weight: bold;">Value</text></g><text x="4" y="4" style="font-family: Arial, sans-serif; font-size: 12px; fill: black; font-weight: bold; dominant-baseline: hanging;">524288</text></g><g transform="translate(536.6666666666666,200)"><g transform="translate(50,20)"><g class="bars"><rect id="131072 - Wall Time" x="4.867556844973943" y="142.59544" height="17.404560000000004" width="14.630401746996112" fill="#1f77b4"/><rect id="131072 - Wall Time" x="25.308425500128312" y="139.12696" height="20.873040000000003" width="14.630401746996112" fill="#1f77b4"/><rect id="131072 - Wall Time" x="45.749294155282676" y="134.45584" height="25.544160000000005" width="14.630401746996112" fill="#1f77b4"/><rect id="131072 - Wall Time" x="66.19016281043704" y="131.2936" height="28.706400000000002" width="14.630401746996112" fill="#1f77b4"/><rect id="131072 - Wall Time" x="86.63103146559142" y="126.05912000000001" height="33.94087999999999" width="14.630401746996112" fill="#1f77b4"/><rect id="131072 - Wall Time" x="107.07190012074578" y="122.54512" height="37.45488" width="14.630401746996112" fill="#1f77b4"/><rect id="131072 - Wall Time" x="127.51276877590016" y="118.60136" height="41.39864" width="14.630401746996112" fill="#1f77b4"/><rect id="131072 - Wall Time" x="147.95363743105455" y="117.58168" height="42.418319999999994" width="14.630401746996112" fill="#1f77b4"/><rect id="131072 - Wall Time" x="168.3945060862089" y="118.39864" height="41.60136" width="14.630401746996112" fill="#1f77b4"/><rect id="131072 - Wall Time" x="188.83537474136327" y="115.88216" height="44.11784" width="14.630401746996112" fill="#1f77b4"/></g><g id="xAxis" transform="translate(0,160)" fill="none" font-size="10" font-family="sans-serif" text-anchor="middle"><path class="domain" stroke="currentColor" d="M0.5,0.5H208.83333333333331"/><g class="tick" opacity="1" transform="translate(12.182757718471999,0)"><line stroke="currentColor" y2="6"/><text fill="currentColor" y="9" dy="0.71em">1</text></g><g class="tick" opacity="1" transform="translate(32.623626373626365,0)"><line stroke="currentColor" y2="6"/><text fill="currentColor" y="9" dy="0.71em">2</text></g><g class="tick" opacity="1" transform="translate(53.06449502878073,0)"><line stroke="currentColor" y2="6"/><text fill="currentColor" y="9" dy="0.71em">3</text></g><g class="tick" opacity="1" transform="translate(73.5053636839351,0)"><line stroke="currentColor" y2="6"/><text fill="currentColor" y="9" dy="0.71em">4</text></g><g class="tick" opacity="1" transform="translate(93.94623233908948,0)"><line stroke="currentColor" y2="6"/><text fill="currentColor" y="9" dy="0.71em">5</text></g><g class="tick" opacity="1" transform="translate(114.38710099424384,0)"><line stroke="currentColor" y2="6"/><text fill="currentColor" y="9" dy="0.71em">6</text></g><g class="tick" opacity="1" transform="translate(134.8279696493982,0)"><line stroke="currentColor" y2="6"/><text fill="currentColor" y="9" dy="0.71em">7</text></g><g class="tick" opacity="1" transform="translate(155.2688383045526,0)"><line stroke="currentColor" y2="6"/><text fill="currentColor" y="9" dy="0.71em">8</text></g><g class="tick" opacity="1" transform="translate(175.70970695970695,0)"><line stroke="currentColor" y2="6"/><text fill="currentColor" y="9" dy="0.71em">9</text></g><g class="tick" opacity="1" transform="translate(196.1505756148613,0)"><line stroke="currentColor" y2="6"/><text fill="currentColor" y="9" dy="0.71em">10</text></g></g><g id="yAxis" fill="none" font-size="10" font-family="sans-serif" text-anchor="end"><path class="domain" stroke="currentColor" d="M0.5,160.5V0.5"/><g class="tick" opacity="1" transform="translate(0,160.5)"><line stroke="currentColor" x2="-6"/><text fill="currentColor" x="-9" dy="0.32em">0.0</text></g><g class="tick" opacity="1" transform="translate(0,144.5)"><line stroke="currentColor" x2="-6"/><text fill="currentColor" x="-9" dy="0.32em">0.2</text></g><g class="tick" opacity="1" transform="translate(0,128.5)"><line stroke="currentColor" x2="-6"/><text fill="currentColor" x="-9" dy="0.32em">0.4</text></g><g class="tick" opacity="1" transform="translate(0,112.5)"><line stroke="currentColor" x2="-6"/><text fill="currentColor" x="-9" dy="0.32em">0.6</text></g><g class="tick" opacity="1" transform="translate(0,96.5)"><line stroke="currentColor" x2="-6"/><text fill="currentColor" x="-9" dy="0.32em">0.8</text></g><g class="tick" opacity="1" transform="translate(0,80.5)"><line stroke="currentColor" x2="-6"/><text fill="currentColor" x="-9" dy="0.32em">1.0</text></g><g class="tick" opacity="1" transform="translate(0,64.5)"><line stroke="currentColor" x2="-6"/><text fill="currentColor" x="-9" dy="0.32em">1.2</text></g><g class="tick" opacity="1" transform="translate(0,48.50000000000001)"><line stroke="currentColor" x2="-6"/><text fill="currentColor" x="-9" dy="0.32em">1.4</text></g><g class="tick" opacity="1" transform="translate(0,32.49999999999999)"><line stroke="currentColor" x2="-6"/><text fill="currentColor" x="-9" dy="0.32em">1.6</text></g><g class="tick" opacity="1" transform="translate(0,16.499999999999996)"><line stroke="currentColor" x2="-6"/><text fill="currentColor" x="-9" dy="0.32em">1.8</text></g><g class="tick" opacity="1" transform="translate(0,0.5)"><line stroke="currentColor" x2="-6"/><text fill="currentColor" x="-9" dy="0.32em">2.0</text></g></g><text y="156" x="208.33333333333331" text-anchor="end" display="none" style="font-family: Arial, sans-serif; font-size: 12px; fill: rgb(123, 123, 123); font-weight: bold;">Sets</text><text y="0" x="4" dominant-baseline="hanging" text-anchor="start" display="none" style="font-family: Arial, sans-serif; font-size: 12px; fill: rgb(123, 123, 123); font-weight: bold;">Value</text></g><text x="4" y="4" style="font-family: Arial, sans-serif; font-size: 12px; fill: black; font-weight: bold; dominant-baseline: hanging;">131072</text></g><g transform="translate(0,400)"><g transform="translate(50,20)"><g class="bars"><rect id="262144 - Wall Time" x="4.867556844973943" y="143.12496" height="16.875040000000013" width="14.630401746996112" fill="#1f77b4"/><rect id="262144 - Wall Time" x="25.308425500128312" y="139.66304000000002" height="20.336959999999976" width="14.630401746996112" fill="#1f77b4"/><rect id="262144 - Wall Time" x="45.749294155282676" y="135.19968" height="24.80032" width="14.630401746996112" fill="#1f77b4"/><rect id="262144 - Wall Time" x="66.19016281043704" y="132.09904" height="27.900959999999998" width="14.630401746996112" fill="#1f77b4"/><rect id="262144 - Wall Time" x="86.63103146559142" y="128.72072" height="31.27928" width="14.630401746996112" fill="#1f77b4"/><rect id="262144 - Wall Time" x="107.07190012074578" y="122.78408" height="37.21592" width="14.630401746996112" fill="#1f77b4"/><rect id="262144 - Wall Time" x="127.51276877590016" y="119.65296000000001" height="40.34703999999999" width="14.630401746996112" fill="#1f77b4"/><rect id="262144 - Wall Time" x="147.95363743105455" y="119.14128" height="40.858720000000005" width="14.630401746996112" fill="#1f77b4"/><rect id="262144 - Wall Time" x="168.3945060862089" y="117.36416" height="42.63584" width="14.630401746996112" fill="#1f77b4"/><rect id="262144 - Wall Time" x="188.83537474136327" y="117.86808" height="42.131919999999994" width="14.630401746996112" fill="#1f77b4"/></g><g id="xAxis" transform="translate(0,160)" fill="none" font-size="10" font-family="sans-serif" text-anchor="middle"><path class="domain" stroke="currentColor" d="M0.5,0.5H208.83333333333331"/><g class="tick" opacity="1" transform="translate(12.182757718471999,0)"><line stroke="currentColor" y2="6"/><text fill="currentColor" y="9" dy="0.71em">1</text></g><g class="tick" opacity="1" transform="translate(32.623626373626365,0)"><line stroke="currentColor" y2="6"/><text fill="currentColor" y="9" dy="0.71em">2</text></g><g class="tick" opacity="1" transform="translate(53.06449502878073,0)"><line stroke="currentColor" y2="6"/><text fill="currentColor" y="9" dy="0.71em">3</text></g><g class="tick" opacity="1" transform="translate(73.5053636839351,0)"><line stroke="currentColor" y2="6"/><text fill="currentColor" y="9" dy="0.71em">4</text></g><g class="tick" opacity="1" transform="translate(93.94623233908948,0)"><line stroke="currentColor" y2="6"/><text fill="currentColor" y="9" dy="0.71em">5</text></g><g class="tick" opacity="1" transform="translate(114.38710099424384,0)"><line stroke="currentColor" y2="6"/><text fill="currentColor" y="9" dy="0.71em">6</text></g><g class="tick" opacity="1" transform="translate(134.8279696493982,0)"><line stroke="currentColor" y2="6"/><text fill="currentColor" y="9" dy="0.71em">7</text></g><g class="tick" opacity="1" transform="translate(155.2688383045526,0)"><line stroke="currentColor" y2="6"/><text fill="currentColor" y="9" dy="0.71em">8</text></g><g class="tick" opacity="1" transform="translate(175.70970695970695,0)"><line stroke="currentColor" y2="6"/><text fill="currentColor" y="9" dy="0.71em">9</text></g><g class="tick" opacity="1" transform="translate(196.1505756148613,0)"><line stroke="currentColor" y2="6"/><text fill="currentColor" y="9" dy="0.71em">10</text></g></g><g id="yAxis" fill="none" font-size="10" font-family="sans-serif" text-anchor="end"><path class="domain" stroke="currentColor" d="M0.5,160.5V0.5"/><g class="tick" opacity="1" transform="translate(0,160.5)"><line stroke="currentColor" x2="-6"/><text fill="currentColor" x="-9" dy="0.32em">0.0</text></g><g class="tick" opacity="1" transform="translate(0,144.5)"><line stroke="currentColor" x2="-6"/><text fill="currentColor" x="-9" dy="0.32em">0.2</text></g><g class="tick" opacity="1" transform="translate(0,128.5)"><line stroke="currentColor" x2="-6"/><text fill="currentColor" x="-9" dy="0.32em">0.4</text></g><g class="tick" opacity="1" transform="translate(0,112.5)"><line stroke="currentColor" x2="-6"/><text fill="currentColor" x="-9" dy="0.32em">0.6</text></g><g class="tick" opacity="1" transform="translate(0,96.5)"><line stroke="currentColor" x2="-6"/><text fill="currentColor" x="-9" dy="0.32em">0.8</text></g><g class="tick" opacity="1" transform="translate(0,80.5)"><line stroke="currentColor" x2="-6"/><text fill="currentColor" x="-9" dy="0.32em">1.0</text></g><g class="tick" opacity="1" transform="translate(0,64.5)"><line stroke="currentColor" x2="-6"/><text fill="currentColor" x="-9" dy="0.32em">1.2</text></g><g class="tick" opacity="1" transform="translate(0,48.50000000000001)"><line stroke="currentColor" x2="-6"/><text fill="currentColor" x="-9" dy="0.32em">1.4</text></g><g class="tick" opacity="1" transform="translate(0,32.49999999999999)"><line stroke="currentColor" x2="-6"/><text fill="currentColor" x="-9" dy="0.32em">1.6</text></g><g class="tick" opacity="1" transform="translate(0,16.499999999999996)"><line stroke="currentColor" x2="-6"/><text fill="currentColor" x="-9" dy="0.32em">1.8</text></g><g class="tick" opacity="1" transform="translate(0,0.5)"><line stroke="currentColor" x2="-6"/><text fill="currentColor" x="-9" dy="0.32em">2.0</text></g></g><text y="156" x="208.33333333333331" text-anchor="end" display="none" style="font-family: Arial, sans-serif; font-size: 12px; fill: rgb(123, 123, 123); font-weight: bold;">Sets</text><text y="0" x="4" dominant-baseline="hanging" text-anchor="start" display="none" style="font-family: Arial, sans-serif; font-size: 12px; fill: rgb(123, 123, 123); font-weight: bold;">Value</text></g><text x="4" y="4" style="font-family: Arial, sans-serif; font-size: 12px; fill: black; font-weight: bold; dominant-baseline: hanging;">262144</text></g><g id="grid"><rect x="0" y="0" width="268.3333333333333" height="200" fill="none" stroke="#ccc"/><rect x="268.3333333333333" y="0" width="268.3333333333333" height="200" fill="none" stroke="#ccc"/><rect x="536.6666666666666" y="0" width="268.3333333333333" height="200" fill="none" stroke="#ccc"/><rect x="0" y="200" width="268.3333333333333" height="200" fill="none" stroke="#ccc"/><rect x="268.3333333333333" y="200" width="268.3333333333333" height="200" fill="none" stroke="#ccc"/><rect x="536.6666666666666" y="200" width="268.3333333333333" height="200" fill="none" stroke="#ccc"/><rect x="0" y="400" width="268.3333333333333" height="200" fill="none" stroke="#ccc"/></g></g></svg>